<svg xmlns="http://www.w3.org/2000/svg" viewBox="0 0 280 64" fill="none" role="img" aria-label="SaaS Template">
  <title>SaaS Template</title>
  <g>
    <path d="M32 6c14.359 0 26 11.641 26 26 0 11.046-6.888 20.481-16.604 24.261l-2.908-7.46C45.47 45.966 50 39.512 50 32c0-9.941-8.059-18-18-18V6Z" fill="#1e5a8a"/>
    <path d="M32 58C17.641 58 6 46.359 6 32c0-11.046 6.888-20.481 16.604-24.261l2.908 7.46C18.53 18.034 14 24.488 14 32c0 9.941 8.059 18 18 18v8Z" fill="#4a9ad4"/>
  </g>
  <text x="76" y="41" font-family="'Sora', system-ui, sans-serif" font-size="22" font-weight="600" fill="#0f1d2f" letter-spacing="-0.5">SaaS Template</text>
</svg>
